<svg xmlns="http://www.w3.org/2000/svg" width="920" height="585" viewBox="0 0 920 585" fill="none">
  <path d="M896.048 439.914C892.138 451.996 887.969 464.46 887.37 477.234C886.78 489.523 886.366 501.139 881.308 512.434C878.526 515.579 876.736 512.372 873.219 510.055C863 503.301 847.019 503.208 832.589 495.45C805.757 481.051 792.538 475.662 766.441 467.563C750.429 462.588 735.503 455.285 719.666 449.917C705.661 445.158 692.71 438.135 678.788 433.201C654.759 424.678 623.894 405.811 590.266 407.942C575.04 408.904 561.655 409.131 548.994 418.534C547.96 419.289 547.784 420.416 548.167 421.223C528.266 436.552 593.183 428.557 672.323 470.604C680.888 475.135 688.811 480.762 697.282 485.354C704.627 489.337 712.353 492.471 719.656 496.567C735.441 505.421 738.285 513.127 766.906 526.957C781.522 534.011 843.822 591.119 878.422 573.855C876.964 578.314 873.54 594.584 867.861 606.676C853.411 637.438 835.32 645.61 825.007 665.749C821.594 672.369 820.994 679.92 817.549 686.437C809.636 701.518 797.762 713.817 784.004 723.788C775.45 725.091 764 720.84 756.314 719.051C721.394 710.993 691.976 690.678 669.344 674.748C585.973 616.141 609.547 626.743 575.092 599.839C559.731 587.83 546.109 573.814 530.8 561.722C515.47 549.62 498.124 546.424 479.66 541.976C462.055 537.735 443.83 539.266 426.721 544.789C414.071 548.865 396.279 555.144 388.811 567.204C386.835 568.146 385.822 571.29 388.149 572.531C394.945 576.131 402.765 577.362 409.716 580.931C418.156 585.296 427.342 588.213 436.434 590.809C454.928 596.074 471.985 603.77 489.756 611C516.008 621.664 519.298 629.877 535.341 640.593C551.622 651.475 568.523 661.612 583.625 674.2C669.054 745.344 717.473 780.596 775.885 790.216C773.402 791.664 770.92 793.701 769.668 795.294C764.434 801.914 757.669 807.541 752.022 813.82C740.581 826.512 730.476 840.445 719.863 853.799C709.229 867.142 690.445 875.996 676.026 884.799C666.024 890.912 638.706 899.952 634.268 904.959C607.323 896.549 594.072 878.034 580.202 858.526C550.649 816.892 560.062 827.732 530.479 799.546C517.694 787.35 506.482 772.848 468.468 753.092C450.356 743.679 397.583 738.269 398.72 744.041C398.338 742.086 395.669 743.617 395.297 745.789C394.955 747.765 396.176 747.692 397.831 747.724C426.68 761.584 440.375 821.474 454.556 860.388C463.7 885.513 480.457 910.482 502.654 929.908C505.84 932.67 508.002 936.259 511.147 938.514C497.72 942.517 503.296 940.262 482.608 942.165C460.659 944.182 431.8 932.37 427.249 931.294C407.554 926.65 404.254 922.771 390.28 920.257C385.398 905.517 388.046 899.342 386.142 886.868C382.977 866.232 363.634 843.134 355.39 838.024C330.214 822.405 333.41 818.309 325.218 806.331C320.956 800.177 315.846 792.367 314.998 784.63C314.936 784.03 313.943 784.071 313.881 784.63C312.505 784.444 311.585 797.487 310.892 801.118C302.534 819.488 308.161 834.104 311.471 846.041C312.309 848.968 311.936 855.071 311.616 856.716C309.981 858.557 306.578 860.295 305.027 861.97C304.727 862.136 304.468 862.301 304.158 862.487C298.521 859.995 294.962 854.74 290.463 850.654C274.937 836.545 270.199 826.822 262.297 806.424C248.291 770.273 242.199 729.736 248.498 688.816C253.577 655.799 241.795 651.206 230.759 657.971C298.003 548.824 358.452 495.191 405.258 465.567C426.204 452.275 445.878 437.442 466.307 423.447C485.753 410.093 580.967 349.531 639.13 298.277C655.67 283.724 674.423 272.18 690.704 257.357C706.995 242.555 722.428 226.812 738.916 212.269C787.604 169.26 789.673 158.337 817.073 114.831C847.96 65.8221 853.07 53.5441 863.631 29.2466C865.358 25.2332 868.016 19.1408 868.896 14.8688C869.144 26.5779 870.633 37.8837 874.709 49.2721C884.484 76.6934 877.491 81.6894 878.929 96.0879C879.653 103.484 880.036 110.693 881.887 117.934C885.228 130.998 896.834 155.451 900.62 168.256C901.468 171.07 907.188 189.006 905.585 192.988C901.189 194.343 887.835 201.801 873.488 201.077C836.013 199.205 832.093 196.226 806.326 208.059C796.603 212.517 790.118 218.299 783.756 226.471C782.267 227.35 782.422 229.884 784.118 229.615C794.379 227.94 805.954 228.519 816.173 230.039C848.405 234.839 851.601 263.47 884.235 260.926C891.435 260.357 900.568 258.836 908.129 256.013C898.696 278.334 907.178 309.842 906.805 321.789C896.431 344.576 872.35 347.048 848.022 341.638C817.042 334.77 782.68 324.581 740.012 315.282C729.452 312.976 718.756 312.81 707.978 312.655C692.493 312.438 669.344 314.476 660.759 330.064C660.697 330.157 660.686 330.27 660.655 330.364C660.448 330.591 660.283 330.839 660.2 331.15C658.969 332.887 660.966 334.325 662.517 333.539C671.951 335.711 682.253 333.787 691.066 338.514C701.203 343.945 712.426 346.738 722.894 351.827C743.054 361.622 763.213 374.542 785.628 378.555C842.819 388.775 819.959 380.531 885.322 385.775C894.962 386.551 901.954 386.127 910.043 390.564C909.857 394.164 908.533 399.118 907.467 402.17C903.113 414.551 900.092 427.429 896.048 439.914ZM156.956 793.308C158.745 786.326 158.001 783.668 159.304 779.2C160.349 775.579 161.476 772.031 162.469 768.39C167.114 751.53 173.506 733.894 178.347 722.774C179.847 719.33 182.267 716.154 183.167 712.513C183.963 709.265 201.175 669.318 209.068 655.561C210.206 653.575 222.142 635.204 222.515 634.677C227.469 630.467 230.893 622.833 224.532 618.096C218.998 613.958 210.878 614.289 204.279 613.989C187.118 613.234 181.129 614.703 169.379 621.85C154.205 624.705 140.778 633.922 122.294 642.672C113.036 647.058 101.503 647.658 91.4386 648.961C87.8597 649.406 83.5877 648.041 79.9881 648.061C85.6358 633.135 93.6522 620.754 109.892 615.261C121.694 611.248 137.117 608.124 141.782 594.802C142.475 593.571 142.64 591.574 141.223 591.533C141.099 591.471 140.996 591.409 140.82 591.378C141.482 591.471 139.341 589.816 138.523 589.723C135.731 589.371 131.51 591.409 128.904 590.178C126.432 589.03 119.874 591.254 117.484 591.843C88.801 598.908 65.0414 626.433 51.7704 627.995C48.6776 628.367 46.6088 628.098 44.2194 628.781C44.147 628.708 44.085 628.657 44.0022 628.615C36.6064 614.134 31.6414 609.996 22.8285 589.299C19.3324 581.055 19.1358 572.387 19.0427 563.594C18.9703 556.364 20.4805 549.858 19.3324 542.566C17.2636 529.263 7.15777 518.609 9.11273 498.222C10.1471 487.516 11.9159 487.258 12.6813 484.599C20.8839 481.962 33.524 487.423 41.5818 488.602C51.5945 490.04 60.5212 485.634 70.0581 483.472C74.2784 482.53 78.6331 482.489 82.8844 481.465C99.031 477.607 112.778 476.883 131.748 483.906C154.173 492.202 166.141 487.816 193.604 502.494C217.87 515.444 244.723 506.383 245.271 503.663C249.191 498.977 238.279 493.909 233.2 491.488C215.739 483.182 218.191 485.561 207.351 474.462C203.855 470.852 199.376 469.073 195.217 466.291C170.972 450.041 138.358 449.689 74.2784 436.852C64.7 434.939 60.6453 423.53 52.5979 418.337C41.8921 411.396 35.5927 401.322 29.7382 390.264C29.8002 389.623 29.4279 388.899 28.8486 388.495C32.7379 375.524 41.8921 366.06 50.1464 355.54C59.4247 343.697 62.9313 328.709 71.1752 316.286C74.6921 310.959 75.6644 304.732 79.8433 299.653C92.411 284.417 94.8728 289.392 105.258 276.007C109.054 271.125 113.967 266.946 117.639 262.033C135.824 269.956 131.148 291.016 168.758 305.58C180.25 310.048 193.107 314.31 202.52 322.42C252.718 365.646 269.796 348.238 304.116 374.769C317.036 384.761 331.176 407.052 349.112 406.442C354.956 407.145 359.031 405.645 363.821 402.542C363.779 402.397 363.696 402.263 363.634 402.139C363.634 402.139 362.445 399.729 362.414 399.667C362.404 399.667 362.383 399.667 362.383 399.667C353.198 381.979 347.209 379.693 336.761 353.223C335.613 351.661 334.496 350.068 333.317 348.548C315.919 325.585 281.608 313.183 247.64 290.271C242.985 287.116 239.065 282.927 234.772 279.296C223.115 269.48 212.605 264.908 197.131 244.666C182.505 221.361 177.53 218.072 176.051 208.949C175.554 205.897 178.885 196.836 185.546 192.305C190.418 188.985 195.021 185.21 200.11 182.241C210.237 176.345 215.15 166.746 223.683 159.278C241.04 144.083 262.617 143.38 269.786 136.77C273.437 133.387 278.04 132.095 282.084 129.653C282.208 129.633 282.333 129.591 282.498 129.467C283.119 129.022 283.719 128.898 284.288 128.816C289.17 156.03 309.743 205.494 326.407 222.137C335.386 231.105 345.502 238.883 354.346 247.924C360.914 254.647 370.192 259.012 377.712 264.65C402.848 283.475 390.373 301.773 410.481 325.554C415.519 331.501 422.728 340.552 430.921 341.431C432.038 342.673 434.21 342.89 435.11 341.059C435.637 340.552 435.906 339.838 435.958 339.145C437.396 335.804 439.03 332.598 440.199 329.153C441.74 324.706 441.14 319.554 441.626 314.972C442.888 303.211 444.305 291.781 444.843 279.958C446.219 249.931 451.38 257.688 435.306 210.697C420.039 166.032 375.83 130.543 390.776 78.907C426.628 89.3024 439.133 78.2657 450.925 72.1215C455.994 69.4838 462.055 68.9356 467.413 67.0737C466.255 72.2456 466.462 78.0174 466.213 83.1065C465.334 100.836 473.206 124.73 480.002 140.152C483.498 148.127 487.501 153.506 493.211 160.136C513.774 184.02 532.579 228.198 536.22 246.734C539.509 263.429 538.982 269.418 541.34 270.608C541.971 272.025 543.223 272.863 544.878 271.301C558.014 259.043 556.07 259.085 562.586 243.931C567.706 232.025 570.085 219.303 571.999 206.559C576.012 179.821 567.479 153.144 571.244 126.685C572.154 120.344 573.944 114.065 575.092 107.745C576.302 101.249 576.095 94.6088 577.191 88.0819C579.343 75.0798 589.687 64.343 597.9 54.6405C607.478 43.3141 619.653 37.6354 633.761 33.9737C657.273 27.8606 663.065 30.9016 671.361 33.7875C673.223 46.2207 651.698 141.818 687.714 177.473C687.745 177.524 687.808 177.535 687.818 177.555C688.47 179.479 691.438 178.89 692.193 177.028C696.558 166.456 702.33 156.557 706.747 146.017C731.293 87.244 708.971 44.6071 771.375 32.3187C811.115 24.5092 842.447 32.5256 868.875 4.49403C867.706 9.63487 867.241 14.755 865.327 19.8855C850.111 60.7744 816.546 107.456 797.193 136.873C766.544 183.431 741.336 198.636 721.363 216.872C648.594 283.227 667.461 260.45 633.855 289.061C579.167 335.649 471.23 406.907 390.818 460.881C336.079 497.612 292.149 549.144 255.904 600.242C220.539 650.078 191.504 702.542 156.956 793.308ZM114.133 259.581C114.154 259.664 114.164 259.705 114.164 259.778C114.164 259.778 114.133 259.798 114.122 259.809C114.133 259.736 114.133 259.664 114.133 259.581ZM914.708 384.275C907.85 374.211 891.735 375.183 884.99 374.107C850.473 368.594 851.87 375.762 797.824 369.184C785.877 367.736 774.354 365.212 763.307 360.464C757.421 357.93 751.36 356.585 745.598 353.471C737.437 349.055 711.836 339.725 709.705 339.052C707.43 338.339 704.802 338.173 702.475 337.718C693.424 336.011 692.235 328.677 668.434 329.277C676.15 325.357 682.884 320.558 691.976 318.654C697.82 317.434 704.182 318.292 710.109 318.365C761.796 319.11 836.013 351.382 878.422 351.341C892.159 351.341 914.046 340.366 913.829 324.354C916.777 310.09 908.533 296.126 910.943 272.066C911.605 265.622 913.86 259.333 914.791 252.899C915.618 252.423 915.991 250.799 914.956 250.303C906.805 246.321 893.141 251.875 884.67 253.396C868.306 256.261 858.862 244.397 847.215 235.729C826.145 220.037 799.582 221.165 789.983 223.864C797.379 218.041 805.075 213.458 814.974 211.617C827.014 209.362 837.523 209.031 849.491 211.793C885.901 220.203 905.057 208.131 908.036 197.353C914.894 190.795 908.502 174.607 906.702 167.439C901.634 147.248 890.535 129.529 885.994 109.152C882.291 92.4987 887.121 75.5659 883.284 59.078C881.35 50.8651 876.746 43.4693 874.947 35.2253C872.485 24.0644 872.412 12.5208 871.223 1.17369C871.119 0.232404 870.406 0.263436 869.816 0.666843C869.309 0.397904 868.616 0.428936 868.172 0.894404C845.322 24.1575 820.528 18.2926 796.014 20.1027C773.723 21.7371 750.739 23.6507 733.33 39.2387C715.653 55.0336 714.846 80.4585 712.808 102.222C709.695 135.777 693.9 162.009 689.473 171.825C686.773 163.984 681.798 161.036 676.626 143.514C672.385 129.116 672.002 114.614 671.133 99.7807C670.347 86.3648 672.188 73.4144 673.099 60.0917C674.919 33.56 675.519 42.6625 673.047 32.4946C673.244 31.7395 673.192 30.8396 672.861 30.3637C667.368 22.4404 653.611 23.8782 645.202 24.5299C632.344 25.5125 618.37 29.4949 607.84 37.0768C590.276 49.7376 572.599 71.3457 570.654 93.6054C569.434 107.704 565.534 121.265 564.386 135.322C562.772 155.482 578.588 226.533 544.226 262.995C544.195 262.995 544.154 263.005 544.123 263.026C544.091 249.02 538.64 233.587 533.562 221.32C529.414 211.235 519.318 183.648 508.83 171.504C503.399 165.205 498.982 158.161 493.397 151.944C485.877 143.555 481.646 133.77 478.357 123.013C471.985 102.17 467.527 87.6681 471.727 65.0774C471.944 64.9533 472.14 64.8291 472.337 64.705C473.33 64.0637 473.454 62.5638 472.482 61.8501C453.522 48.4239 445.36 75.4728 406.499 73.7868C401.027 73.5386 386.898 70.2182 387.901 76.6107C360.035 123.013 409.126 165.867 433.744 224.743C439.889 238.832 444.419 253.654 443.271 268.27C442.268 280.993 440.954 293.416 438.337 305.911C434.965 321.82 438.761 320.63 431.603 336.228C423.545 331.067 416.77 324.612 410.781 317.041C403.22 307.462 402.186 296.043 398.596 284.913C392.09 264.722 373.854 251.617 359.59 237.001C340.609 217.575 329.748 215.869 314.512 184.403C305.751 166.301 295.779 141.662 293.587 136.801C290.732 130.45 289.801 117.924 284.939 124.161C285.105 123.82 285.156 123.551 284.505 124.109C279.705 123.757 275.071 126.654 270.861 128.681C268.358 129.871 266.476 131.908 264.314 133.522C261.48 135.642 257.714 136.046 254.394 137.018C217.85 147.776 210.547 160.985 204.051 167.946C196.893 175.559 167.807 187.909 171.634 210.479C171.716 210.955 171.913 211.359 172.192 211.669C173.982 222.468 179.216 225.716 191.597 244.841C193.945 248.482 197.245 253.209 201.144 255.909C212.14 268.487 221.739 273.535 233.117 283.124C242.085 290.706 250.991 297.77 261.304 303.563C281.95 315.169 306.909 324.985 322.684 343.231C329.934 351.599 336.006 362.977 341.251 372.721C345.771 381.11 354.16 389.84 356.301 399.408C339.244 397.019 337.237 396.222 322.57 380.934C283.057 339.725 271.275 357.547 229.104 331.822C218.47 325.326 210.485 316.234 200.907 308.486C197.555 305.766 193.18 304.152 189.249 302.56C182.474 299.798 175.957 296.457 169.12 293.84C137.655 281.707 136.713 254.782 117.401 255.92C116.553 255.982 115.829 256.416 115.384 257.068C114.485 257.471 114.122 258.454 114.133 259.426C114.06 258.609 113.502 257.916 114.091 259.809C107.523 263.026 102.093 271.218 98.9585 275.004C95.8554 278.769 91.8627 279.483 88.2321 282.162C77.2574 290.271 69.7374 300.274 64.5656 312.821C61.6797 319.782 57.1284 325.854 54.3666 333.043C50.9015 342.031 46.6088 350.586 40.8577 358.312C33.7412 367.922 24.8456 380.107 25.8075 392.095C25.8386 392.519 26.0351 392.695 26.2834 392.705C28.3831 400.194 34.2894 408.19 38.8614 413.962C41.9335 417.841 45.5641 420.354 49.6809 422.93C54.9769 426.24 57.5732 430.925 60.966 435.849C73.5853 454.147 162.231 453.578 203.834 482.013C207.878 484.775 211.788 487.723 215.957 490.278C226.114 496.536 233.769 497.736 238.723 502.742C203.037 507.697 196.748 497.125 181.946 490.981C171.799 486.751 160.276 485.944 149.571 484.051C133.217 481.113 122.294 471.887 94.5418 474.566C84.9841 475.476 75.3748 475.466 65.8896 476.469C53.1254 477.824 54.0046 482.148 33.5033 478.734C25.9937 477.483 17.3774 476.728 10.7988 480.979C9.79542 481.02 8.8438 481.496 8.23351 482.282C1.66523 490.805 0.113671 501.304 1.17908 512.083C1.86177 519.085 2.64789 525.643 4.84076 532.367C12.4641 555.723 7.28189 550.706 10.6126 576.617C12.1745 588.647 26.8833 612.479 29.2313 616.782C32.0138 621.861 36.2547 626.174 38.6028 631.449C38.8303 631.987 39.2958 632.329 39.8337 632.546C39.9785 632.691 40.1647 632.794 40.3612 632.867C40.4646 633.166 40.7025 633.415 41.0853 633.518C57.6766 637.811 71.1545 623.226 93.166 608.517C103.51 601.597 122.087 594.171 127.673 596.467C130.186 597.501 134.158 595.133 136.455 595.329C131.79 600.222 130.776 602.942 119.077 606.893C110.533 609.759 101.72 611.351 94.4383 617.03C85.7599 623.805 75.6334 638.059 74.7335 650.037C72.975 651.982 72.2199 655.364 73.8543 656.336C80.3294 660.164 88.6458 659.44 95.8554 659.284C105.475 659.098 115.519 657.774 124.135 653.233C146.24 641.597 159.159 637.304 170.786 630.953C178.916 626.515 185.701 621.571 195.217 621.013C201.827 620.62 228.917 616.141 222.856 631.129C202.862 651.382 161.6 749.358 159.697 760.622C158.145 769.652 153.543 778.351 152.984 787.444C152.674 791.974 151.432 795.45 149.819 799.618C148.112 804.045 147.864 809.776 146.798 814.482C145.485 820.43 144.316 826.295 142.402 832.097C141.368 835.201 140.944 837.59 141.658 840.755C142.03 842.452 144.254 841.231 144.616 840.217C144.885 839.462 145.102 838.717 145.35 837.983C151.246 837.311 166.141 787.681 175.295 766.756C190.439 732.125 206.471 698.57 225.494 666.68C230.666 662.491 237.575 659.222 242.509 664.363C249.377 671.583 241.961 691.205 240.947 699.832C237.006 732.963 243.14 779.624 258.045 815.382C261.997 828.705 268.844 842.203 284.132 857.181C287.732 860.688 303.092 879.099 307.489 870.411C308.678 870.059 309.743 868.942 310.457 868.177C310.933 867.649 311.678 867.235 312.381 866.77C315.319 866.025 317.139 863.708 318.163 860.75C320.429 857.171 322.621 852.671 320.273 849.113C319.839 847.458 319.146 846.051 318.318 844.613C317.067 839.379 311.874 829.47 311.647 818.806C311.781 809.59 314.688 803.311 315.36 795.263C318.008 806.321 323.449 809.424 326.955 817.616C332.976 831.663 346.609 837.466 356.29 848.079C379.771 873.793 376.461 902.569 377.05 912.262C377.361 917.216 376.647 920.981 380.195 925.026C381.374 926.339 383.484 927.219 385.294 926.846C392.225 931.015 409.478 938.059 422.17 941.183C446.964 942.558 471.727 952.437 502.406 945.248C505.789 944.462 514.281 944.213 516.381 941.141C519.68 936.228 510.423 930.818 507.319 927.943C494.721 916.213 483.891 899.404 475.378 884.354C467.506 873.452 464.776 867.308 455.942 842.886C451.794 831.384 430.434 764.118 406.747 748.148C450.346 751.582 482.463 771.018 534.917 814.317C566.031 839.99 574.057 873.803 606.888 899.59C615.619 906.459 622.942 908.921 633.544 909.355C634.951 910.658 640.278 907.597 674.309 894.967C680.691 892.608 695.059 885.647 715.146 870.442C721.476 865.622 725.459 858.971 730.041 852.609C735.534 845.038 741.212 837.621 746.726 830.039C751.525 823.419 755.869 816.83 761.527 810.872C764.413 807.831 768.044 804.345 770.485 801.025C771.933 799.049 776.733 793.846 779.495 793.133C781.243 792.667 782.587 788.074 779.981 788.53C753.025 776.479 719.325 768.773 676.285 737.018C559.462 650.854 634.785 699.615 537.203 632.732C521.263 621.788 520.446 614.651 495.31 603.77C432.317 576.514 443.147 585.337 416.108 575.169C403.489 570.432 407.802 570.814 394.573 568.053C401.979 559.333 427.569 549.775 443.292 547.272C463.4 544.065 485.029 548.493 504.206 554.626C523.373 560.719 538.206 576.555 552.832 589.63C567.044 602.373 582.663 613.348 596.483 626.526C624.773 653.554 658.287 675.969 690.631 697.949C727.538 723.023 774.602 729.932 782.753 727.408C782.991 727.781 783.405 728.019 784.149 727.915C790.531 727.077 795.372 722.671 799.954 718.451C805.706 713.124 810.846 708.004 815.284 701.508C819.639 695.146 824.79 689.137 827.138 681.668C830.024 672.493 835.475 663.608 842.064 656.626C864.324 632.949 881.153 602.673 883.232 569.583C883.346 567.949 881.463 567.67 880.656 568.921C880.543 569.108 880.46 569.304 880.336 569.49C864.044 574.797 848.146 568.766 833.282 561.598C817.425 553.954 803.12 544.5 789.114 533.877C776.278 524.102 761.734 517.885 748.298 509.041C734.861 500.198 723.235 490.485 708.278 483.937C687.88 475.021 669.261 450.889 565.513 428.888C562.338 428.215 559.214 427.667 556.08 426.788C552.646 425.805 547.039 426.24 551.28 421.854C573.747 413.32 567.634 415.472 593.069 413.858C608.647 412.855 625.083 417.996 639.244 424.026C640.888 424.74 734.427 465.784 762.086 474.4C777.374 479.138 793.086 484.413 807.392 491.561C819.401 497.57 831.627 505.938 844.753 508.897C853.545 510.872 862.183 512.434 870.095 517.017C873.612 519.044 876.136 520.74 880.243 519.458C881.825 518.982 882.136 517.958 882.498 516.479C887.297 511.617 894.683 493.557 896.493 486.823C900.092 473.407 895.613 476.417 906.64 439.987C908.74 433.118 925.207 388.878 914.708 384.275Z" fill="#3D473F"/>
  <path d="M360.345 810.5C355.018 804.955 351.563 796.887 347.384 790.629C341.333 781.661 336.896 771.928 331.693 762.474C323.335 747.175 319.115 728.267 317.284 710.765C323.097 716.289 327.607 723.219 331.776 729.984C343.506 749.151 355.163 757.353 358.845 784.971C359.487 789.688 360.242 794.374 360.655 799.111C360.8 800.663 360.842 806.476 360.345 810.5ZM337.93 731.556C331.393 722.123 326.314 712.048 316.798 705.087C315.319 703.99 313.509 707.135 314.698 708.417C313.56 727.253 319.229 748.944 327.731 765.515C332.345 774.545 336.503 783.906 342.088 792.346C347.519 800.559 352.039 811.244 359.849 817.482C360.914 818.309 362.507 816.871 362.972 816.023C366.107 810.272 365.289 800.694 364.721 794.353C361.462 759.929 350.208 749.234 337.93 731.556Z" fill="#3D473F"/>
  <path d="M383.174 842.503C381.384 841.107 379.957 837.083 378.985 835.707C376.326 832.015 370.679 827.36 374.826 816.571C379.398 811.72 377.05 813.892 379.409 813.861C381.622 813.82 382.791 816.458 383.67 818.03C385.894 821.981 385.884 826.243 385.884 830.68C385.884 833.597 384.829 838.811 383.174 842.503ZM371.134 815.537C369.375 816.996 367.927 818.051 367.389 822.561C366.572 829.367 368.155 832.853 371.196 838.717C372.975 842.141 376.585 849.258 380.96 850.127C384.136 850.778 387.704 848.048 387.735 844.789C387.735 839.535 390.932 839.193 388.997 825.426C388.335 820.554 386.96 816.013 383.939 812.062C379.398 806.104 373.254 809.972 371.134 815.537Z" fill="#3D473F"/>
  <path d="M696.248 637.376C708.412 642.797 722.542 644.452 733.03 653.264C737.447 656.988 741.119 660.236 746.281 662.988C749.984 664.963 759.883 667.787 763.845 672.069C763.865 672.4 763.927 672.773 764.093 673.114C764.279 673.766 764.506 673.828 764.775 673.311C764.775 673.311 764.786 673.331 764.806 673.342C764.475 674.997 764.806 676.186 765.386 678.224C765.241 679.062 765.51 679.455 765.655 680.365C761.01 685.402 747.098 679.227 742.681 677.852C734.965 675.441 726.597 674.179 718.663 672.711C696.817 668.687 696.91 663.774 679.884 655.799C674.226 653.14 668.196 651.599 662.631 648.744C653.518 644.11 650.415 636.973 633.193 614.703C632.013 613.172 630.751 611.476 630.224 609.572C661.607 610.472 669.541 625.491 696.248 637.376ZM644.891 641.979C656.983 658.312 676.802 661.302 692.1 673.486C702.765 681.989 714.515 680.489 749.58 688.226C766.058 691.857 772.461 683.427 770.423 676.776C770.547 676.445 770.651 676.093 770.671 675.659C771.457 664.053 753.863 660.733 745.991 656.678C734.179 650.627 738.358 645.807 705.682 634.304C689.183 628.491 676.967 616.803 661.855 608.6C653.353 603.987 639.751 601.07 629.779 604.452C628.786 603.139 626.769 604.576 626.231 606.024C625.611 606.418 625.321 607.111 625.321 607.804C623.232 614.227 625.807 616.12 644.891 641.979Z" fill="#3D473F"/>
  <path d="M756.293 444.207C756.149 443.814 755.88 443.586 755.352 443.731C752.435 444.517 748.691 445.789 745.743 445.024C743.209 444.372 743.746 443.845 742.919 443.204C742.712 442.707 742.36 442.304 741.823 442.18C741.15 442.024 740.488 436.625 740.323 435.932C739.485 433.925 740.354 432.487 742.929 431.619C751.142 436.377 758.476 429.508 764.558 436.615C767.754 440.328 761.041 442.893 756.293 444.207ZM761.734 429.57C757.09 427.553 751.959 429.953 747.253 428.981C744.036 428.309 741.543 424.812 738.699 428.402C735.927 431.867 736.382 435.642 736.847 439.831C737.033 441.445 737.592 445.789 738.885 446.772C740.23 448.065 739.919 448.158 739.547 447.031C739.702 447.507 740.23 448.096 740.799 448.158C740.768 448.2 740.892 448.262 741.398 448.293C744.708 448.51 746.032 450.754 751.391 448.893C756.573 448.831 762.169 447.134 765.499 444.021C770.826 439.014 767.785 432.229 761.734 429.57Z" fill="#3D473F"/>
  <path d="M836.696 466.963C825.359 466.477 811.839 469.321 803.523 460.322C799.986 456.537 795.641 453.433 790.955 451.303C786.549 449.296 788.297 444.755 791.121 440.762C791.566 440.887 792.062 440.824 792.466 440.483C801.123 433.149 807.547 444.372 824.852 448.655C833.665 450.817 844.422 444.962 845.974 460.136C846.553 466.156 841.319 467.17 836.696 466.963ZM819.277 441.517C807.174 437.411 798.568 426.219 791.69 435.746C778.76 444.672 777.984 452.678 783.963 456.381C801.061 466.963 798.444 473.873 819.742 473.552C840.678 473.221 842.778 474.049 846.357 471.887C851.528 468.732 852.977 462.277 851.715 456.557C847.763 438.725 833.375 446.307 819.277 441.517Z" fill="#3D473F"/>
  <path d="M767.785 67.7047C770.175 63.0707 776.247 51.4547 781.418 51.0926C781.015 52.0649 781.181 53.2855 782.308 53.6372C791.783 56.73 790.966 67.9943 786.466 75.266C780.674 84.6271 778.398 81.8549 765.324 107.125C764.32 109.028 763.307 110.911 762.252 112.762C761.714 114.769 761.207 114.758 760.731 112.721C759.231 110.507 758.093 108.211 755.994 106.463C753.025 104.032 749.829 102.625 750.015 98.1257C750.336 91.4643 761.403 80.0655 767.785 67.7047ZM750.108 111.221C753.346 113.517 755.166 116.269 757.607 119.258C759.448 121.534 761.579 120.789 763.596 119.62C768.489 116.775 770.34 104.477 780.353 89.1887C785.846 80.7688 793.376 75.2246 793.345 64.4464C793.334 59.8021 792.838 54.2268 790.076 51.3719C789.518 50.0789 788.856 48.7653 788.07 47.4206C783.87 40.2731 773.94 50.0169 771.178 53.2752C763.679 62.1501 759.035 73.311 751.732 82.4962C746.281 89.3748 740.116 99.2428 745.66 107.611C746.446 108.78 749.012 110.435 750.108 111.221Z" fill="#3D473F"/>
  <path d="M182.36 372.876C180.374 377.81 177.116 376.993 173.64 373.952C167.186 368.284 160.949 363.763 153.346 359.709C146.736 356.171 140.406 351.496 133.31 348.941C124.973 345.931 110.347 342.952 108.961 332.07C107.513 320.444 127.114 314.6 134.427 319.43C148.567 328.719 140.654 327.86 162.262 337.139C167.362 339.311 171.592 344.514 175.906 347.969C179.309 350.71 182.722 353.358 185.867 356.388C191.483 361.819 184.232 368.242 182.36 372.876ZM181.45 346.572C161.383 330.312 145.588 321.809 143.944 321.509C139.061 317.837 135.11 314.227 129.648 312.386C122.325 309.935 110.13 316.317 105.413 321.633C99.362 328.45 101.658 337.708 106.882 343.986C115.364 354.206 132.183 355.323 143.261 361.405C148.784 364.425 154.804 366.608 160.132 369.97C165.479 373.321 170.31 377.345 175.482 380.934C184.863 387.409 186.208 373.662 191.008 366.97C197.09 358.519 187.273 351.279 181.45 346.572Z" fill="#3D473F"/>
  <path d="M243.078 402.553C230.583 395.488 212.429 395.343 211.571 387.585C211.064 383.117 210.661 378.689 209.999 374.231C212.14 371.294 222.866 375.866 224.708 376.497C237.348 380.872 247.402 389.033 250.639 402.77C252.325 409.948 246.098 404.27 243.078 402.553ZM240.44 379.165C234.958 373.538 225.235 372.132 218.16 369.649C206.275 365.481 204.517 374.511 207.527 380.696C207.175 385.93 206.802 391.381 209.44 395.591C214.043 402.977 233.893 403.111 246.057 410.341C247.474 411.169 251.301 413.993 253.018 412.948C258.004 409.917 254.218 403.08 253.236 398.849C251.539 391.567 245.498 384.389 240.44 379.165Z" fill="#3D473F"/>
  <path d="M275.092 418.058C274.947 413.61 277.792 408.417 282.271 407.021C287.38 405.407 296.348 415.586 290.215 418.761C288.446 419.692 285.994 419.609 284.07 420.137C281.298 420.892 276.912 421.833 274.771 419.258C274.978 418.937 275.123 418.544 275.092 418.058ZM270.582 419.485C271.016 421.037 272.03 422.475 273.83 423.675C277.481 426.116 282.767 424.968 286.625 423.902C290.018 422.961 294.186 423.023 296.059 419.351C299.886 411.769 290.98 403.804 284.101 402.946C274.595 401.766 266.631 415.834 270.582 419.485Z" fill="#3D473F"/>
  <path d="M410.905 413.807C405.64 399.501 401.761 385.051 395.462 371.108C389.442 357.733 382.036 344.255 372.137 333.343C361.493 321.561 352.308 308.673 341.054 297.367C330.214 286.506 318.432 276.607 307.447 265.943C296.007 254.823 285.591 241.935 276.53 228.829C259.669 204.408 245.219 178.952 231.493 152.679C231.989 151.541 231.679 150.527 229.673 150.444C229.404 150.434 229.135 150.434 228.855 150.413C226.497 150.32 223.115 152.854 224.108 155.42C228.855 167.811 235.496 179.572 241.951 191.137C249.284 204.19 258.697 215.589 266.889 228.012C283.646 253.396 306.092 272.718 328.486 292.836C340.113 303.263 350.55 314.848 360.19 327.116C365.134 333.405 370.689 339.145 375.488 345.548C379.74 351.185 382.636 357.65 386.36 363.598C394.676 376.838 399.682 392.86 403.572 407.9C407.471 423.085 413.388 437.556 411.847 453.392C411.691 453.671 411.598 453.961 411.598 454.24C411.598 454.799 411.598 455.347 411.598 455.906C411.598 458.316 416.367 456.071 416.615 454.333C418.508 440.731 415.622 426.664 410.905 413.807Z" fill="#3D473F"/>
  <path d="M636.523 30.1052C631.786 38.8663 629.179 49.3238 626.076 58.7677C622.218 70.5492 617.056 82.2273 614.615 94.4122C610.054 117.055 610.819 140.338 613.664 163.271C616.767 188.623 624.297 213.117 625.393 238.697C625.9 250.582 624.887 262.302 624.855 274.094C624.855 278.645 624.069 283.103 623.925 287.665C623.769 291.936 623.097 301.97 618.804 304.701C616.808 305.942 618.153 308.59 620.346 307.856C626.966 305.58 627.276 298.277 628.155 292.371C629.707 281.717 630.472 270.484 630.441 259.736C630.41 246.558 630.431 233.432 629.179 220.296C627.803 205.876 623.004 192.109 621.401 177.742C619.942 165.029 619.373 152.327 618.525 139.573C617.677 127.057 617.48 113.176 620.873 100.991C624.225 89.0025 627.421 77.2727 631.527 65.4704C635.396 54.4026 639.978 42.528 641.468 30.8913C641.809 28.2743 637.516 28.3053 636.523 30.1052Z" fill="#3D473F"/>
  <path d="M906.93 288.916C897.868 294.233 884.825 289.806 874.823 289.123C861.914 288.275 848.643 289.185 835.692 289.206C830.148 289.216 824.883 288.616 819.452 287.582C813.95 286.547 808.012 287.261 802.396 286.237C790.231 284.034 777.922 283.062 765.727 281.065C754.37 279.214 743.333 278.272 731.851 277.579C718.818 276.793 706.002 273.007 692.948 272.883C674.743 272.739 654.418 276.886 643.205 292.971C642.843 293.509 642.916 295.784 643.96 294.998C651.625 289.299 660.231 283.744 669.344 280.714C680.215 277.104 692.576 277.414 703.799 279.338C715.498 281.365 727.31 282.968 739.195 283.382C751.246 283.817 763.058 286.609 775.026 287.913C786.756 289.175 798.289 292.102 809.988 293.157C822.256 294.264 834.358 295.04 846.729 295.06C857.642 295.071 868.813 294.326 879.632 295.826C887.866 296.943 898.934 299.487 906.361 294.636C906.516 294.595 906.671 294.512 906.836 294.378C907.126 294.129 907.395 293.912 907.685 293.685C909.06 292.567 909.433 287.447 906.93 288.916Z" fill="#3D473F"/>
  <path d="M827.676 644.886C819.452 637.676 810.309 631.543 801.392 625.274C781.832 611.569 764.237 596.022 746.126 580.527C729.658 566.418 710.833 557.802 692.442 546.662C672.944 534.818 653.642 524.35 632.789 515.062C610.695 505.214 588.683 495.15 566 486.72C544.526 478.734 520.901 474.845 498.32 471.452C475.347 468.008 452.167 467.573 428.966 468.287C405.93 469.001 384.891 475.942 364.265 485.913C362.073 486.978 363.593 490.857 365.962 490.143C375.354 487.33 384.425 483.844 393.724 480.762C405.33 476.904 416.832 475.29 429.007 474.721C451.66 473.656 474.426 474.255 496.883 477.328C517.632 480.151 538.764 484.113 558.738 490.371C580.812 497.312 601.696 507.852 622.88 517.037C643.36 525.912 663.107 535.284 682.067 547.076C699.155 557.678 717.535 566.046 733.579 578.241C750.17 590.85 764.62 606.107 781.181 618.84C789.828 625.512 798.868 631.625 807.774 637.914C811.746 640.717 815.636 643.634 819.556 646.5C821.966 648.258 832.155 654.361 832.434 658.105C832.599 660.577 836.178 661.426 836.706 658.695C837.885 652.582 831.71 648.413 827.676 644.886Z" fill="#3D473F"/>
  <path d="M711.95 866.263C707.471 868.021 702.703 861.101 700.075 858.402C696.683 854.864 692.948 851.813 689.152 848.741C679.315 840.755 669.344 832.935 659.497 824.95C640.061 809.186 622.311 791.881 604.168 774.69C569.547 741.9 528.503 716.041 491.887 685.537C474.24 670.849 455.88 657.96 435.213 647.906C414.298 637.749 392.628 630.074 370.844 622.099C349.815 614.413 328.766 606.593 306.475 603.521C295.055 601.949 283.657 603.356 272.34 605.042C263.786 606.304 255.097 607.555 249.067 614.227C246.191 617.423 250.629 622.73 253.691 619.337C260.673 611.631 275.495 611.465 285.187 610.338C298.2 608.807 310.736 610.524 323.428 613.513C345.667 618.778 367.296 627.281 388.935 634.604C411.247 642.166 433.868 650.978 454.184 663.039C474.013 674.8 491.204 690.698 509.326 704.818C528.203 719.537 547.257 733.977 566.258 748.489C585.539 763.219 602.854 779.293 619.88 796.546C635.954 812.858 653.518 827.67 671.164 842.224C680.753 850.147 690.166 857.967 699.31 866.397C703.644 870.39 708.671 874.321 713.46 869.159C714.432 868.083 713.636 865.591 711.95 866.263Z" fill="#3D473F"/>
  <path d="M275.557 581.53C270.427 573.907 261.614 569.366 253.649 565.26C244.143 560.378 234.369 555.702 224.532 551.503C202.365 542.028 177.437 534.684 153.346 532.336C142.216 531.249 130.093 531.58 118.994 532.967C107.306 534.415 96.114 538.614 84.4049 540.207C72.5613 541.81 60.6453 542.886 49.081 545.989C38.0649 548.958 26.8212 552.723 15.7224 555.113C12.9916 555.723 12.9503 559.209 15.5259 559.467V559.498C15.6293 559.498 15.712 559.488 15.8155 559.467C15.9293 559.488 16.0327 559.488 16.1568 559.467C16.4154 559.457 16.6947 559.436 16.974 559.405C17.036 559.395 17.0981 559.364 17.1705 559.343C25.0835 558.588 33.4723 555.144 41.2404 553.53C51.9359 551.285 62.1762 548.606 73.0268 547.138C83.9705 545.669 94.5625 544.293 105.237 541.521C117.857 538.231 130.062 537.642 143.044 537.549C155.415 537.476 167.393 539.866 179.443 542.4C191.39 544.914 202.955 547.644 214.312 552.165C224.428 556.199 233.986 561.06 243.812 565.611C253.649 570.152 265.596 574.921 271.803 584.303C273.251 586.495 277.109 583.847 275.557 581.53Z" fill="#3D473F"/>
  <path d="M527.924 361.467C528.255 356.802 528.659 351.279 527.883 346.645C525.535 332.463 525.586 317.93 522.876 303.853C517.829 277.486 509.068 253.209 497.596 228.984C485.556 203.528 471.199 179.572 457.628 154.934C444.171 130.512 434.706 104.301 432.896 76.2383C432.741 73.6523 428.945 73.942 428.459 76.2279C426.307 86.2924 429.307 98.2084 431.293 108.18C433.92 121.099 440.013 133.232 445.019 145.335C449.943 157.209 458.714 168.308 465.489 179.19C472.864 191.106 479.236 203.653 485.815 216.024C492.114 227.857 497.948 240.332 503.089 252.692C508.323 265.136 513.453 278.169 516.101 291.378C517.601 298.763 519.68 305.797 520.29 313.358C520.859 320.62 520.735 327.86 521.583 335.132C522.359 341.783 523.332 348.238 523.27 354.951C523.207 359.75 523.787 365.605 522.659 370.415C520.87 371.78 520.87 374.821 523.973 374.759C524.242 374.759 524.531 374.759 524.79 374.738C525.969 374.728 527.076 373.662 527.376 372.576C528.503 368.718 527.655 365.398 527.924 361.467Z" fill="#3D473F"/>
  <path d="M333.72 515.165C331.693 504.904 319.984 495.657 313.126 488.54C304.085 479.179 294.414 470.056 284.246 461.957C273.313 453.247 260.869 446.824 248.374 440.711C235.02 434.204 221.77 427.502 208.261 421.264C202.955 418.792 196.966 417.406 191.473 415.337C183.333 412.286 175.544 408.304 167.672 404.621C153.925 398.188 140.334 391.443 126.959 384.213C112.809 376.579 100.531 366.618 88.1804 356.368C82.6568 351.765 77.1643 347.12 71.6097 342.59C69.0238 340.49 66.7378 338.556 64.4932 336.166C63.4588 335.018 62.3313 333.984 61.1108 333.043C60.8108 332.722 60.5419 332.577 60.2936 332.598C60.4281 331.057 59.0834 329.567 57.1388 330.622C56.1044 331.181 55.3493 331.688 55.0287 332.877C54.7287 333.953 54.9149 334.822 55.8458 335.504C60.8315 339.238 65.1242 344.193 69.9857 348.186C75.4989 352.727 80.9397 357.402 86.4219 361.984C96.6416 370.539 106.913 379.383 118.612 385.92C142.971 399.563 168.717 412.772 195.021 422.257C208.778 427.212 221.853 433.201 234.813 439.925C246.657 446.069 259.173 451.085 270.303 458.533C281.681 466.125 291.776 475.104 301.437 484.754C305.978 489.295 310.457 493.836 314.822 498.553C318.587 502.587 325.218 509.228 327.193 515.072C326.449 516.851 327.018 519.054 329.51 519.023C329.779 519.023 330.048 519.023 330.338 519.023C332.21 518.992 334.103 517.099 333.72 515.165Z" fill="#3D473F"/>
</svg>