<svg xmlns="http://www.w3.org/2000/svg" width="587" height="293" viewBox="0 0 587 293" fill="none">
  <path d="M284.544 0.636292H586.041V292.639H284.544V0.636292Z" fill="black"/>
  <path d="M284.544 0.636292H586.041V292.639H284.544V0.636292Z" fill="#1C2120"/>
  <path d="M0.0170898 195.294H69.4319V192.683H21.1484L71.7763 112.825H9.67165V115.436H50.6449L0.0170898 195.294Z" fill="#1C2120"/>
  <path d="M128.148 197.383C143.546 197.383 155.812 188.25 162.6 173.896L159.723 173.374C152.157 190.072 139.113 194.772 126.848 194.772C112.228 194.772 103.351 185.373 102.573 155.631H166.511C166.244 129.534 148.768 110.214 126.848 110.214C102.829 110.214 83.5198 128.49 83.5198 156.154C84.5641 180.94 101.795 197.383 128.148 197.383ZM102.573 153.021C102.573 126.135 109.095 112.825 126.848 112.825C140.669 112.825 147.202 126.401 147.457 153.021H102.573Z" fill="#1C2120"/>
  <path d="M183.731 195.294H200.173V126.657C204.873 118.569 211.916 113.092 221.571 113.092C231.492 113.092 236.703 120.658 236.703 138.4V195.294H252.368V143.888C252.368 122.746 241.146 110.737 221.571 110.737C212.439 110.737 205.395 115.18 200.173 122.224V112.825H183.731V195.294Z" fill="#1C2120"/>
  <path d="M327.004 195.294H343.447V58.8087H327.004V195.294Z" fill="#F8F7F2"/>
  <path d="M404.506 197.383C430.87 197.116 448.09 179.64 448.09 153.799C448.09 128.224 427.481 110.214 404.506 110.214C381.542 110.481 360.666 128.224 360.666 153.799C360.666 179.64 377.897 197.116 404.506 197.383ZM404.506 194.772C383.897 194.772 379.72 176.507 379.72 152.754C379.72 121.702 389.896 112.825 404.506 112.825C418.86 112.825 429.047 121.702 429.047 152.754C429.047 184.595 419.904 194.772 404.506 194.772Z" fill="#F8F7F2"/>
  <path d="M496.366 245.655C517.252 245.655 536.039 233.134 536.039 211.992C536.039 172.586 469.224 198.161 469.224 182.506C469.224 177.551 474.712 170.763 481.756 167.108C486.977 169.463 492.455 170.497 497.41 170.497C510.986 170.497 529.773 162.409 529.773 139.711C529.773 130.579 526.906 123.791 522.207 119.091C528.206 115.18 531.595 115.958 533.684 121.18C535.25 125.091 539.95 127.446 544.127 125.357C549.082 123.002 548.304 112.825 540.994 111.003C533.95 109.437 526.64 113.092 520.641 117.525C514.375 112.047 505.498 110.214 497.41 110.214C483.844 110.214 464.535 117.525 464.535 139.711C464.535 152.754 471.057 161.109 478.889 165.542C469.49 170.497 462.702 176.507 462.702 185.895C462.702 196.338 470.013 202.082 485.145 202.082C473.401 206.781 464.791 213.825 464.791 225.302C464.791 237.312 479.667 245.655 496.366 245.655ZM497.41 167.63C488.277 167.63 478.889 161.364 478.889 139.189C478.889 116.48 488.277 112.825 497.41 112.825C506.542 112.825 515.419 116.48 515.419 139.189C515.419 161.109 506.542 167.63 497.41 167.63ZM499.765 242.267C488.8 242.267 477.323 236.789 477.323 221.125C477.323 210.426 483.578 205.471 489.066 202.082C515.163 202.082 522.729 203.904 522.729 219.569C522.729 234.957 512.03 242.267 499.765 242.267Z" fill="#F8F7F2"/>
</svg>