<svg xmlns="http://www.w3.org/2000/svg" width="77" height="77" viewBox="0 0 77 77" fill="none">
  <g clip-path="url(#clip0_30_465)">
    <path d="M17.2095 67.7151C16.8819 68.1323 16.4985 68.5024 16.0699 68.8149C15.4734 69.2317 14.985 69.7848 14.6453 70.4283C14.3056 71.0718 14.1244 71.7871 14.1167 72.5147C14.1184 73.7049 14.5923 74.8457 15.4345 75.6867C16.2767 76.5277 17.4182 77 18.6083 77H32.7378C33.9258 76.9966 35.064 76.5228 35.9034 75.6822C36.7428 74.8416 37.215 73.7027 37.2167 72.5147C37.2063 72.2909 37.1784 72.0682 37.1332 71.8487C37.5773 71.8577 38.0213 71.8667 38.5 71.8667C38.9787 71.8667 39.4253 71.8577 39.8667 71.8487C39.8217 72.0682 39.7938 72.2909 39.7833 72.5147C39.785 73.7038 40.2581 74.8436 41.0989 75.6844C41.9397 76.5252 43.0795 76.9983 44.2686 77H58.3981C59.5871 76.9983 60.727 76.5252 61.5678 75.6844C62.4085 74.8436 62.8816 73.7038 62.8833 72.5147C62.8756 71.7873 62.6945 71.0721 62.355 70.4287C62.0155 69.7852 61.5275 69.232 60.9314 68.8149C60.5017 68.5032 60.1177 68.133 59.7905 67.7151C70.8939 62.6472 77 53.121 77 40.7073C77 17.8807 60.0882 0 38.5 0C16.9118 0 0 17.8807 0 40.7073C0 53.1197 6.10482 62.6472 17.2095 67.7151ZM32.7314 74.4333H18.6083C18.0989 74.4333 17.6102 74.2314 17.2494 73.8718C16.8886 73.5122 16.685 73.0242 16.6833 72.5147C16.6889 72.1959 16.7714 71.883 16.9238 71.6029C17.0762 71.3227 17.2939 71.0835 17.5586 70.9054C19.5067 69.5233 21.8167 66.5626 21.8167 60.3167V26.266C24.3211 25.4669 27.0122 25.4669 29.5167 26.266V60.3167C29.5167 66.5626 31.8267 69.5233 33.7761 70.9054C34.0403 71.0838 34.2577 71.3231 34.4098 71.6032C34.5619 71.8834 34.6443 72.196 34.65 72.5147C34.6483 73.0231 34.4456 73.5101 34.0862 73.8695C33.7268 74.229 33.2397 74.4316 32.7314 74.4333ZM32.0833 47.1561C36.271 45.9144 40.729 45.9144 44.9167 47.1561V53.0337C40.6539 52.5268 36.3461 52.5268 32.0833 53.0337V47.1561ZM44.9167 44.479C40.7105 43.3722 36.2895 43.3722 32.0833 44.479V40.9448C36.228 39.4355 40.772 39.4355 44.9167 40.9448V44.479ZM35.7267 69.2333C35.582 69.0839 35.4277 68.9441 35.2647 68.8149C34.0764 67.9692 32.0833 65.7413 32.0833 60.3167V55.6145C36.3444 55.08 40.6556 55.08 44.9167 55.6145V60.3167C44.9167 65.7426 42.9236 67.9692 41.7353 68.8149C41.5728 68.9437 41.4188 69.083 41.2746 69.232C40.4134 69.2743 39.51 69.3 38.5 69.3C37.5157 69.3 36.6212 69.2743 35.7267 69.2333ZM60.3167 72.5147C60.315 73.0231 60.1123 73.5101 59.7529 73.8695C59.3934 74.229 58.9064 74.4316 58.3981 74.4333H44.2686C43.7603 74.4316 43.2732 74.229 42.9138 73.8695C42.5544 73.5101 42.3517 73.0231 42.35 72.5147C42.3554 72.1958 42.4378 71.8829 42.5902 71.6027C42.7426 71.3225 42.9604 71.0833 43.2252 70.9054C45.1733 69.5233 47.4833 66.5639 47.4833 60.3167V26.266C49.9878 25.4669 52.6789 25.4669 55.1833 26.266V60.3167C55.1833 66.5639 57.4933 69.5233 59.4414 70.9054C59.7062 71.0833 59.9241 71.3225 60.0765 71.6027C60.2289 71.8829 60.3113 72.1958 60.3167 72.5147ZM38.5 2.56667C58.6483 2.56667 74.4333 19.3206 74.4333 40.7073C74.4333 55.1217 66.057 62.1031 58.5559 65.4757C57.982 63.8178 57.7091 62.0706 57.75 60.3167V27.5506C57.9694 27.7162 58.108 27.8393 58.126 27.8573C58.3681 28.0911 58.6922 28.2204 59.0287 28.2175C59.3652 28.2146 59.6871 28.0796 59.925 27.8417C60.163 27.6037 60.2979 27.2819 60.3008 26.9454C60.3038 26.6089 60.1744 26.2847 59.9407 26.0427C57.5435 24.0147 54.4703 22.964 51.3333 23.1C48.1963 22.964 45.1232 24.0147 42.726 26.0427C42.491 26.2837 42.3601 26.6074 42.3615 26.944C42.3629 27.2806 42.4965 27.6032 42.7335 27.8422C42.9706 28.0812 43.292 28.2176 43.6286 28.2219C43.9652 28.2261 44.29 28.098 44.5329 27.865C44.5535 27.8458 44.6934 27.72 44.9179 27.5519V38.2215C40.7414 36.9055 36.2612 36.9055 32.0846 38.2215V27.5506C32.3041 27.7162 32.4427 27.8393 32.4606 27.8573C32.7027 28.0911 33.0268 28.2204 33.3633 28.2175C33.6998 28.2146 34.0217 28.0796 34.2596 27.8417C34.4976 27.6037 34.6325 27.2819 34.6355 26.9454C34.6384 26.6089 34.509 26.2847 34.2753 26.0427C31.8777 24.0144 28.8041 22.9637 25.6667 23.1C22.5297 22.964 19.4565 24.0147 17.0593 26.0427C16.8219 26.2829 16.6887 26.6071 16.6887 26.9449C16.6887 27.2827 16.8219 27.6068 17.0593 27.847C17.2987 28.0871 17.6227 28.2235 17.9617 28.2269C18.3007 28.2302 18.6274 28.1003 18.8714 27.865C18.8907 27.8458 19.0318 27.72 19.2564 27.5519V60.3167C19.2966 62.0689 19.0237 63.8142 18.4505 65.4705C10.9417 62.1031 2.56667 55.1192 2.56667 40.7073C2.56667 19.3206 18.3517 2.56667 38.5 2.56667Z" fill="black"/>
    <path d="M16.683 20.5333C16.8078 20.5329 16.9318 20.5148 17.0514 20.4794L29.8847 16.6294C30.2108 16.5317 30.4847 16.3085 30.6462 16.0089C30.8077 15.7093 30.8435 15.3577 30.7458 15.0317C30.6481 14.7056 30.4249 14.4317 30.1253 14.2702C29.8256 14.1087 29.4741 14.0729 29.1481 14.1706L16.3147 18.0206C16.0195 18.1089 15.7659 18.3006 15.6004 18.5605C15.4348 18.8204 15.3683 19.1312 15.413 19.4361C15.4577 19.741 15.6106 20.0197 15.8438 20.2211C16.077 20.4226 16.3749 20.5334 16.683 20.5333Z" fill="black"/>
    <path d="M47.1153 16.6294L59.9486 20.4794C60.0682 20.5148 60.1922 20.5329 60.3169 20.5333C60.6251 20.5334 60.923 20.4226 61.1562 20.2211C61.3894 20.0197 61.5423 19.741 61.587 19.4361C61.6317 19.1312 61.5652 18.8204 61.3996 18.5605C61.2341 18.3006 60.9805 18.1089 60.6853 18.0206L47.8519 14.1706C47.6905 14.1222 47.5211 14.1061 47.3534 14.1232C47.1857 14.1403 47.0231 14.1903 46.8747 14.2702C46.7263 14.3502 46.5952 14.4586 46.4887 14.5892C46.3822 14.7199 46.3025 14.8702 46.2542 15.0317C46.2058 15.1931 46.1897 15.3625 46.2068 15.5302C46.2239 15.6979 46.2739 15.8605 46.3538 16.0089C46.4338 16.1573 46.5422 16.2884 46.6729 16.3949C46.8035 16.5014 46.9538 16.5811 47.1153 16.6294Z" fill="black"/>
  </g>
  <defs>
    <clipPath id="clip0_30_465">
      <rect width="77" height="77" fill="white"/>
    </clipPath>
  </defs>
</svg>