<svg xmlns="http://www.w3.org/2000/svg" width="77" height="77" viewBox="0 0 77 77" fill="none">
  <g clip-path="url(#clip0_30_466)">
    <path d="M38.5 2.56667C16.9118 2.56667 0 20.4499 0 43.2804C0 62.4983 14.7583 74.4333 38.5 74.4333C62.2417 74.4333 77 62.4983 77 43.2804C77 20.4499 60.0882 2.56667 38.5 2.56667ZM38.5 71.8667C16.0006 71.8667 2.56667 61.1804 2.56667 43.2804C2.56667 21.8898 18.3517 5.13333 38.5 5.13333C58.6483 5.13333 74.4333 21.8898 74.4333 43.2804C74.4333 61.1804 60.9994 71.8667 38.5 71.8667Z" fill="black"/>
    <path d="M33.3665 37.2167C33.3665 32.9701 30.488 29.5167 26.9499 29.5167C23.4117 29.5167 20.5332 32.9701 20.5332 37.2167C20.5332 41.4632 23.4117 44.9167 26.9499 44.9167C30.488 44.9167 33.3665 41.4632 33.3665 37.2167ZM23.0999 37.2167C23.0999 34.3856 24.8272 32.0833 26.9499 32.0833C29.0725 32.0833 30.7999 34.3856 30.7999 37.2167C30.7999 40.0477 29.0725 42.35 26.9499 42.35C24.8272 42.35 23.0999 40.0477 23.0999 37.2167Z" fill="black"/>
    <path d="M50.0505 29.5167C46.5123 29.5167 43.6338 32.9701 43.6338 37.2167C43.6338 41.4632 46.5123 44.9167 50.0505 44.9167C53.5886 44.9167 56.4671 41.4632 56.4671 37.2167C56.4671 32.9701 53.5886 29.5167 50.0505 29.5167ZM50.0505 42.35C47.9278 42.35 46.2005 40.0477 46.2005 37.2167C46.2005 34.3856 47.9278 32.0833 50.0505 32.0833C52.1731 32.0833 53.9005 34.3856 53.9005 37.2167C53.9005 40.0477 52.1731 42.35 50.0505 42.35Z" fill="black"/>
    <path d="M38.4996 50.05C35.5623 49.9666 32.6524 50.636 30.0468 51.9945C27.4411 53.3531 25.2263 55.3556 23.613 57.8116C23.2523 58.3959 23.076 59.0752 23.107 59.7611C23.138 60.4471 23.3749 61.1077 23.7869 61.6571C24.1988 62.2064 24.7666 62.6189 25.4164 62.8408C26.0662 63.0628 26.7677 63.0838 27.4296 62.9013C31.0467 61.9847 34.7686 61.5471 38.4996 61.6C42.232 61.5468 45.9552 61.9843 49.5735 62.9013C50.2354 63.083 50.9366 63.0613 51.5859 62.8389C52.2351 62.6165 52.8024 62.2037 53.2138 61.6544C53.6253 61.1051 53.8617 60.4446 53.8925 59.7589C53.9233 59.0733 53.7469 58.3943 53.3863 57.8103C51.7726 55.3547 49.5577 53.3526 46.9521 51.9943C44.3465 50.636 41.4368 49.9667 38.4996 50.05ZM51.0032 60.2782C50.8967 60.3597 50.7728 60.4153 50.6412 60.4407C50.5096 60.4661 50.3738 60.4605 50.2447 60.4245C46.4076 59.4477 42.4587 58.98 38.4996 59.0333C34.5406 58.98 30.5917 59.4477 26.7546 60.4245C26.6255 60.4607 26.4897 60.4664 26.3581 60.441C26.2264 60.4156 26.1025 60.3598 25.9961 60.2782C25.8326 60.1518 25.7208 59.9701 25.6816 59.7672C25.6423 59.5643 25.6784 59.354 25.7831 59.1758C27.1659 57.0872 29.0607 55.3878 31.2869 54.2395C33.513 53.0913 35.9962 52.5326 38.4996 52.6167C41.0029 52.5327 43.486 53.0913 45.7121 54.2393C47.9382 55.3873 49.8331 57.0864 51.2162 59.1745C51.3218 59.3527 51.3584 59.5634 51.3191 59.7668C51.2799 59.9701 51.1675 60.1521 51.0032 60.2782Z" fill="black"/>
    <path d="M31.1101 25.6282C31.277 25.5906 31.4347 25.5201 31.5739 25.4207C31.7131 25.3214 31.831 25.1952 31.9208 25.0496C32.0106 24.904 32.0703 24.742 32.0965 24.573C32.1228 24.404 32.115 24.2314 32.0736 24.0655C32.0322 23.8995 31.958 23.7435 31.8555 23.6067C31.7529 23.4698 31.624 23.3548 31.4764 23.2684C31.3288 23.1821 31.1654 23.1261 30.9958 23.1038C30.8263 23.0815 30.6539 23.0933 30.489 23.1385L20.2223 25.7052C19.9187 25.7813 19.6534 25.9657 19.4762 26.2238C19.2991 26.4819 19.2224 26.7958 19.2606 27.1065C19.2987 27.4172 19.4491 27.7032 19.6834 27.9107C19.9178 28.1182 20.2199 28.233 20.5329 28.2333C20.6381 28.2337 20.7428 28.2208 20.8447 28.1948L31.1101 25.6282Z" fill="black"/>
    <path d="M56.7771 25.7052L46.5104 23.1385C46.3455 23.0933 46.1732 23.0815 46.0036 23.1038C45.834 23.1261 45.6706 23.1821 45.523 23.2684C45.3754 23.3548 45.2465 23.4698 45.144 23.6067C45.0414 23.7435 44.9673 23.8995 44.9259 24.0655C44.8845 24.2314 44.8766 24.404 44.9029 24.573C44.9291 24.742 44.9889 24.904 45.0786 25.0496C45.1684 25.1952 45.2863 25.3214 45.4255 25.4207C45.5648 25.5201 45.7224 25.5906 45.8893 25.6282L56.156 28.1948C56.2574 28.2207 56.3618 28.2336 56.4665 28.2333C56.7794 28.2327 57.0813 28.1177 57.3154 27.9101C57.5495 27.7024 57.6997 27.4164 57.7377 27.1058C57.7757 26.7952 57.6989 26.4815 57.5217 26.2235C57.3446 25.9656 57.0806 25.7812 56.7771 25.7052Z" fill="black"/>
  </g>
  <defs>
    <clipPath id="clip0_30_466">
      <rect width="77" height="77" fill="white"/>
    </clipPath>
  </defs>
</svg>