<svg xmlns="http://www.w3.org/2000/svg" width="79" height="79" viewBox="0 0 79 79" fill="none">
  <g clip-path="url(#clip0_30_467)">
    <path d="M39.5 76.3667C63.8649 76.3667 79 64.1217 79 44.4046C79 20.9811 61.649 2.63333 39.5 2.63333C17.351 2.63333 0 20.9811 0 44.4046C0 64.1217 15.1417 76.3667 39.5 76.3667ZM39.5 5.26666C60.1717 5.26666 76.3667 22.4584 76.3667 44.4046C76.3667 62.7694 62.5838 73.7333 39.5 73.7333C16.4162 73.7333 2.63333 62.7694 2.63333 44.4046C2.63333 22.4584 18.8283 5.26666 39.5 5.26666Z" fill="black"/>
    <path d="M22.3966 50.1531C23.205 60.5943 30.5586 68.4667 39.5001 68.4667C48.4415 68.4667 55.7951 60.5943 56.6036 50.1531C56.677 49.3345 56.5066 48.5125 56.1136 47.7906C55.7207 47.0687 55.1229 46.4792 54.3955 46.0965C52.0479 44.8891 47.5594 43.45 39.5001 43.45C31.4407 43.45 26.9522 44.8891 24.6046 46.0965C23.8772 46.4792 23.2794 47.0687 22.8865 47.7906C22.4935 48.5125 22.3231 49.3345 22.3966 50.1531ZM39.5001 65.8333C33.2182 65.8333 27.8673 61.1012 25.837 54.2993C30.3043 53.1813 34.8951 52.6327 39.5001 52.6667C44.105 52.6327 48.6958 53.1813 53.1631 54.2993C51.1328 61.1012 45.7819 65.8333 39.5001 65.8333ZM25.8067 48.4375C27.5184 47.558 31.5711 46.0833 39.5001 46.0833C47.429 46.0833 51.4817 47.5567 53.1934 48.4362C53.4578 48.5847 53.6732 48.807 53.8135 49.0758C53.9538 49.3447 54.0128 49.6486 53.9834 49.9504C53.936 50.556 53.8609 51.1499 53.7661 51.7345C49.1009 50.5718 44.3079 50.0002 39.5001 50.0333C34.694 50.0007 29.9028 50.5722 25.2392 51.7345C25.1444 51.1499 25.0694 50.5495 25.022 49.9504C24.9922 49.6493 25.0505 49.346 25.1898 49.0775C25.3291 48.8089 25.5434 48.5866 25.8067 48.4375Z" fill="black"/>
    <path d="M54.6412 25.1905L45.4246 30.4571C45.2232 30.5723 45.0558 30.7387 44.9394 30.9394C44.823 31.1401 44.7617 31.368 44.7617 31.6C44.7617 31.832 44.823 32.0599 44.9394 32.2606C45.0558 32.4613 45.2232 32.6277 45.4246 32.7429L54.6412 38.0095C54.9444 38.1826 55.3038 38.2283 55.6406 38.1364C55.9774 38.0446 56.2639 37.8228 56.4372 37.5197C56.6103 37.2166 56.6559 36.8571 56.5641 36.5204C56.4722 36.1836 56.2504 35.8971 55.9474 35.7238L48.7373 31.6L55.9526 27.4762C56.247 27.2986 56.4603 27.0129 56.5468 26.6802C56.6333 26.3474 56.5863 25.994 56.4157 25.6955C56.2451 25.397 55.9646 25.1771 55.634 25.0827C55.3034 24.9883 54.949 25.027 54.6465 25.1905H54.6412Z" fill="black"/>
    <path d="M22.5568 37.525C22.73 37.828 23.0166 38.0499 23.3533 38.1417C23.6901 38.2335 24.0496 38.1879 24.3527 38.0148L33.5694 32.7481C33.7707 32.6329 33.9381 32.4665 34.0545 32.2659C34.1709 32.0652 34.2322 31.8373 34.2322 31.6053C34.2322 31.3733 34.1709 31.1454 34.0545 30.9447C33.9381 30.744 33.7707 30.5776 33.5694 30.4624L24.3527 25.1957C24.0502 25.0323 23.6958 24.9936 23.3652 25.088C23.0346 25.1823 22.7541 25.4023 22.5835 25.7008C22.4129 25.9993 22.3659 26.3527 22.4524 26.6854C22.5389 27.0182 22.7522 27.3039 23.0466 27.4815L30.2619 31.6L23.0413 35.7238C22.891 35.81 22.7592 35.9251 22.6534 36.0624C22.5477 36.1997 22.4701 36.3565 22.4251 36.5238C22.3801 36.6911 22.3685 36.8657 22.3911 37.0375C22.4137 37.2093 22.47 37.375 22.5568 37.525Z" fill="black"/>
    <path d="M24.3193 20.8665L34.8526 27.4499C35.1495 27.6349 35.5077 27.6945 35.8484 27.6155C36.1892 27.5365 36.4846 27.3254 36.6696 27.0285C36.8547 26.7317 36.9143 26.3735 36.8353 26.0328C36.7563 25.692 36.5451 25.3966 36.2483 25.2115L25.715 18.6282C25.568 18.5366 25.4044 18.4748 25.2336 18.4463C25.0627 18.4179 24.8879 18.4234 24.7192 18.4626C24.5505 18.5017 24.3911 18.5737 24.2502 18.6744C24.1093 18.7751 23.9896 18.9026 23.898 19.0495C23.8063 19.1965 23.7445 19.3601 23.7161 19.5309C23.6877 19.7018 23.6932 19.8766 23.7323 20.0453C23.7715 20.214 23.8434 20.3734 23.9441 20.5143C24.0449 20.6552 24.1723 20.7749 24.3193 20.8665Z" fill="black"/>
    <path d="M43.4496 27.65C43.6959 27.6498 43.9372 27.5804 44.1461 27.4499L54.6794 20.8665C54.8264 20.7749 54.9539 20.6552 55.0546 20.5143C55.1553 20.3734 55.2273 20.214 55.2664 20.0453C55.3055 19.8766 55.3111 19.7018 55.2826 19.5309C55.2542 19.3601 55.1924 19.1965 55.1008 19.0495C55.0091 18.9026 54.8894 18.7751 54.7485 18.6744C54.6076 18.5737 54.4483 18.5017 54.2795 18.4626C54.1108 18.4234 53.936 18.4179 53.7652 18.4463C53.5943 18.4748 53.4308 18.5366 53.2838 18.6282L42.7504 25.2115C42.5054 25.3621 42.3164 25.5888 42.2123 25.8569C42.1082 26.125 42.0948 26.4198 42.174 26.6963C42.2533 26.9727 42.4209 27.2156 42.6513 27.3879C42.8816 27.5601 43.162 27.6522 43.4496 27.65Z" fill="black"/>
  </g>
  <defs>
    <clipPath id="clip0_30_467">
      <rect width="79" height="79" fill="white"/>
    </clipPath>
  </defs>
</svg>