<svg xmlns="http://www.w3.org/2000/svg" width="77" height="78" viewBox="0 0 77 78" fill="none">
  <g clip-path="url(#clip0_30_469)">
    <path d="M38.5 2.59999C16.9118 2.59999 0 20.7168 0 43.8425C0 63.31 14.7583 75.4 38.5 75.4C62.2417 75.4 77 63.31 77 43.8425C77 20.7168 60.0882 2.59999 38.5 2.59999ZM38.5 72.8C16.0006 72.8 2.56667 61.9749 2.56667 43.8425C2.56667 22.1741 18.3517 5.19999 38.5 5.19999C58.6483 5.19999 74.4333 22.1741 74.4333 43.8425C74.4333 61.9749 60.9994 72.8 38.5 72.8Z" fill="black"/>
    <path d="M33.3665 31.2C33.3665 26.8983 30.488 23.4 26.9499 23.4C23.4117 23.4 20.5332 26.8983 20.5332 31.2C20.5332 35.5017 23.4117 39 26.9499 39C30.488 39 33.3665 35.5017 33.3665 31.2ZM26.9499 36.4C24.8272 36.4 23.0999 34.0678 23.0999 31.2C23.0999 28.3322 24.8272 26 26.9499 26C29.0725 26 30.7999 28.3322 30.7999 31.2C30.7999 34.0678 29.0725 36.4 26.9499 36.4Z" fill="black"/>
    <path d="M50.0505 39C53.5886 39 56.4671 35.5017 56.4671 31.2C56.4671 26.8983 53.5886 23.4 50.0505 23.4C46.5123 23.4 43.6338 26.8983 43.6338 31.2C43.6338 35.5017 46.5123 39 50.0505 39ZM50.0505 26C52.1731 26 53.9005 28.3322 53.9005 31.2C53.9005 34.0678 52.1731 36.4 50.0505 36.4C47.9278 36.4 46.2005 34.0678 46.2005 31.2C46.2005 28.3322 47.9278 26 50.0505 26Z" fill="black"/>
    <path d="M28.1051 17.6189C28.0298 17.4661 27.9256 17.3297 27.7982 17.2177C27.6709 17.1057 27.5231 17.0203 27.3631 16.9662C27.2032 16.9121 27.0343 16.8905 26.8661 16.9025C26.6979 16.9146 26.5337 16.9601 26.3829 17.0365L18.6829 20.9365C18.532 21.0128 18.3975 21.1185 18.287 21.2474C18.1765 21.3764 18.0921 21.5262 18.0387 21.6882C17.9853 21.8502 17.964 22.0213 17.9758 22.1916C17.9877 22.362 18.0326 22.5283 18.1079 22.6811C18.2601 22.9897 18.527 23.2244 18.85 23.3336C19.0099 23.3877 19.1788 23.4093 19.347 23.3973C19.5151 23.3853 19.6793 23.3398 19.8302 23.2635L27.5302 19.3635C27.6811 19.2872 27.8156 19.1816 27.9262 19.0527C28.0368 18.9237 28.1211 18.7739 28.1745 18.6119C28.2279 18.4499 28.2493 18.2788 28.2374 18.1084C28.2255 17.938 28.1805 17.7717 28.1051 17.6189Z" fill="black"/>
    <path d="M58.3241 20.9365L50.6241 17.0365C50.3195 16.8824 49.9669 16.8572 49.6439 16.9664C49.3209 17.0756 49.054 17.3103 48.9019 17.6189C48.7497 17.9275 48.7248 18.2846 48.8327 18.6118C48.9405 18.939 49.1722 19.2094 49.4768 19.3635L57.1768 23.2635C57.3277 23.3398 57.4918 23.3853 57.66 23.3973C57.8282 23.4093 57.9971 23.3877 58.157 23.3336C58.3169 23.2795 58.4648 23.1941 58.5921 23.0821C58.7194 22.9702 58.8237 22.8339 58.8991 22.6811C58.9744 22.5283 59.0193 22.362 59.0312 22.1916C59.043 22.0213 59.0217 21.8502 58.9683 21.6882C58.9149 21.5262 58.8305 21.3764 58.72 21.2474C58.6095 21.1185 58.475 21.0128 58.3241 20.9365Z" fill="black"/>
    <path d="M53.3792 49.0097L23.3375 49.1535C23.1651 49.148 22.9934 49.1779 22.8327 49.2412C22.672 49.3044 22.5255 49.3999 22.402 49.5218C22.2785 49.6437 22.1805 49.7896 22.1139 49.9507C22.0473 50.1119 22.0134 50.285 22.0143 50.4596C22.0152 50.6343 22.0509 50.807 22.1192 50.9675C22.1874 51.1279 22.2869 51.2727 22.4117 51.3933C22.5364 51.5139 22.6839 51.6078 22.8453 51.6694C23.0066 51.731 23.1786 51.759 23.3509 51.7517L53.3926 51.608C53.7247 51.594 54.0384 51.4501 54.2678 51.2066C54.4972 50.9631 54.6244 50.6389 54.6227 50.3023C54.621 49.9657 54.4904 49.6429 54.2585 49.4018C54.0265 49.1607 53.7114 49.0202 53.3792 49.0097Z" fill="black"/>
  </g>
  <defs>
    <clipPath id="clip0_30_469">
      <rect width="77" height="78" fill="white"/>
    </clipPath>
  </defs>
</svg>