<svg xmlns="http://www.w3.org/2000/svg" width="79" height="79" viewBox="0 0 79 79" fill="none">
  <g clip-path="url(#clip0_30_468)">
    <path d="M39.5 2.63333C17.351 2.63333 0 20.9811 0 44.4046C0 64.1217 15.1417 76.3667 39.5 76.3667C63.8583 76.3667 79 64.1217 79 44.4046C79 20.9811 61.649 2.63333 39.5 2.63333ZM39.5 73.7333C16.4162 73.7333 2.63333 62.7694 2.63333 44.4046C2.63333 22.4584 18.8283 5.26666 39.5 5.26666C60.1717 5.26666 76.3667 22.4584 76.3667 44.4046C76.3667 62.7694 62.5838 73.7333 39.5 73.7333Z" fill="black"/>
    <path d="M34.2331 31.6C34.2331 27.2431 31.2798 23.7 27.6497 23.7C24.0197 23.7 21.0664 27.2431 21.0664 31.6C21.0664 35.9568 24.0197 39.5 27.6497 39.5C31.2798 39.5 34.2331 35.9568 34.2331 31.6ZM23.6997 31.6C23.6997 28.6954 25.472 26.3333 27.6497 26.3333C29.8275 26.3333 31.5997 28.6954 31.5997 31.6C31.5997 34.5046 29.8275 36.8667 27.6497 36.8667C25.472 36.8667 23.6997 34.5046 23.6997 31.6Z" fill="black"/>
    <path d="M51.3499 23.7C47.7199 23.7 44.7666 27.2431 44.7666 31.6C44.7666 35.9568 47.7199 39.5 51.3499 39.5C54.98 39.5 57.9333 35.9568 57.9333 31.6C57.9333 27.2431 54.98 23.7 51.3499 23.7ZM51.3499 36.8667C49.1722 36.8667 47.3999 34.5046 47.3999 31.6C47.3999 28.6954 49.1722 26.3333 51.3499 26.3333C53.5277 26.3333 55.2999 28.6954 55.2999 31.6C55.2999 34.5046 53.5277 36.8667 51.3499 36.8667Z" fill="black"/>
    <path d="M53.9297 49.2973C53.4993 48.9674 52.9983 48.7415 52.4661 48.6376C51.9338 48.5337 51.3847 48.5544 50.8618 48.6982C47.1495 49.639 43.3296 50.0879 39.5003 50.0333C35.671 50.0879 31.8511 49.639 28.1388 48.6982C27.4598 48.5118 26.7403 48.5341 26.0742 48.7623C25.408 48.9905 24.826 49.4139 24.4039 49.9775C23.9818 50.5411 23.7392 51.2188 23.7076 51.9222C23.6761 52.6257 23.857 53.3223 24.227 53.9215C25.8826 56.4409 28.155 58.495 30.8283 59.8886C33.5015 61.2821 36.4868 61.9688 39.5003 61.8833C42.514 61.9689 45.4994 61.2821 48.1727 59.8883C50.8461 58.4945 53.1184 56.44 54.7736 53.9201C55.2235 53.1799 55.386 52.3004 55.2305 51.4483C55.0749 50.5962 54.612 49.8308 53.9297 49.2973ZM52.5472 52.5205C51.1285 54.6633 49.1844 56.4069 46.9004 57.585C44.6165 58.763 42.0687 59.3363 39.5003 59.25C36.932 59.3362 34.3845 58.763 32.1006 57.5852C29.8166 56.4074 27.8725 54.6642 26.4535 52.5218C26.346 52.3388 26.3089 52.1229 26.3491 51.9144C26.3894 51.706 26.5041 51.5194 26.672 51.3895C26.7813 51.3061 26.9085 51.2491 27.0435 51.2231C27.1785 51.197 27.3177 51.2026 27.4502 51.2394C31.3869 52.2415 35.4384 52.7214 39.5003 52.6667C43.5622 52.7214 47.6137 52.2415 51.5504 51.2394C51.6829 51.2023 51.8222 51.1966 51.9572 51.2226C52.0923 51.2487 52.2194 51.3058 52.3286 51.3895C52.4959 51.5195 52.6103 51.7059 52.6505 51.9139C52.6907 52.122 52.654 52.3375 52.5472 52.5205Z" fill="black"/>
    <path d="M28.8351 17.8448C28.7579 17.69 28.6509 17.5519 28.5202 17.4385C28.3896 17.3251 28.2379 17.2385 28.0738 17.1837C27.9097 17.1289 27.7365 17.107 27.5639 17.1192C27.3913 17.1314 27.2229 17.1776 27.0681 17.2549L19.1681 21.2049C19.0134 21.2822 18.8754 21.3892 18.762 21.5199C18.6486 21.6505 18.562 21.8022 18.5072 21.9662C18.4525 22.1303 18.4305 22.3036 18.4427 22.4761C18.4549 22.6487 18.501 22.8171 18.5783 22.9719C18.7343 23.2844 19.0082 23.5222 19.3396 23.6328C19.5036 23.6875 19.6769 23.7095 19.8495 23.6973C20.022 23.6851 20.1905 23.639 20.3452 23.5618L28.2452 19.6118C28.4 19.5345 28.5381 19.4275 28.6515 19.2969C28.765 19.1663 28.8515 19.0146 28.9063 18.8505C28.9611 18.6864 28.983 18.5131 28.9708 18.3406C28.9586 18.168 28.9124 17.9995 28.8351 17.8448Z" fill="black"/>
    <path d="M59.839 21.2049L51.939 17.2549C51.6264 17.0988 51.2647 17.0733 50.9333 17.1839C50.602 17.2945 50.3281 17.5323 50.172 17.8448C50.0159 18.1573 49.9904 18.5191 50.101 18.8504C50.2116 19.1818 50.4493 19.4557 50.7619 19.6118L58.6619 23.5618C58.8166 23.639 58.9851 23.6851 59.1576 23.6973C59.3302 23.7095 59.5034 23.6875 59.6675 23.6328C59.8316 23.578 59.9833 23.4914 60.1139 23.378C60.2445 23.2647 60.3515 23.1266 60.4288 22.9719C60.5061 22.8171 60.5522 22.6487 60.5644 22.4761C60.5765 22.3036 60.5546 22.1303 60.4999 21.9662C60.4451 21.8022 60.3585 21.6505 60.2451 21.5198C60.1317 21.3892 59.9937 21.2822 59.839 21.2049Z" fill="black"/>
  </g>
  <defs>
    <clipPath id="clip0_30_468">
      <rect width="79" height="79" fill="white"/>
    </clipPath>
  </defs>
</svg>