<svg xmlns="http://www.w3.org/2000/svg" width="48" height="48" viewBox="0 0 48 48" fill="none">
<path d="M24 0C10.7452 0 0 10.7452 0 24C0 37.2555 10.7452 48 24 48C37.2555 48 48 37.2555 48 24C48 10.7452 37.2555 0 24 0ZM24 45.0472C12.4207 45.0472 3 35.5793 3 23.9999C3 12.4207 12.4207 2.99991 24 2.99991C35.5793 2.99991 45 12.4207 45 23.9999C45 35.5791 35.5793 45.0472 24 45.0472ZM32.4847 15.5153C31.899 14.9295 30.9495 14.9295 30.3638 15.5153L24 21.879L17.6362 15.5153C17.0505 14.9295 16.101 14.9295 15.5145 15.5153C14.9288 16.101 14.9288 17.0505 15.5145 17.6362L21.8783 24L15.5145 30.3638C14.9288 30.9487 14.9288 31.8998 15.5145 32.4848C16.1003 33.0705 17.0497 33.0705 17.6362 32.4848L24 26.121L30.3638 32.4848C30.9495 33.0705 31.899 33.0705 32.4847 32.4848C33.0705 31.8998 33.0705 30.9487 32.4847 30.3638L26.121 24L32.4847 17.6362C33.0713 17.0497 33.0713 16.1003 32.4847 15.5153Z" fill="#3D473F"/>
</svg>